<svg xmlns="http://www.w3.org/2000/svg" width="2604.51" height="425.774" viewBox="0 0 2604.51 425.774"><path d="M-166.429,914.353a5.492,5.492,0,0,1-4.409-2.206c-3.056-4.086-9.833-12.746-20.886-24.833a5.5,5.5,0,0,1,.347-7.77,5.5,5.5,0,0,1,7.77.347c11.372,12.435,18.4,21.419,21.578,25.668a5.5,5.5,0,0,1-1.11,7.7A5.476,5.476,0,0,1-166.429,914.353Zm-44.259-48.919a5.482,5.482,0,0,1-3.832-1.555c-7.579-7.365-15.659-14.838-24.015-22.213a5.5,5.5,0,0,1-.484-7.763,5.5,5.5,0,0,1,7.763-.484c8.487,7.49,16.7,15.084,24.4,22.571a5.5,5.5,0,0,1,.112,7.777A5.484,5.484,0,0,1-210.688,865.434ZM-260.1,821.74a5.477,5.477,0,0,1-3.46-1.227q-12.07-9.784-25.869-20.156a5.5,5.5,0,0,1-1.1-7.7,5.5,5.5,0,0,1,7.7-1.1q13.985,10.483,26.2,20.413a5.5,5.5,0,0,1,.81,7.736A5.489,5.489,0,0,1-260.1,821.74Zm-52.789-39.609a5.474,5.474,0,0,1-3.138-.987q-12.963-9.028-27.227-18.306a5.5,5.5,0,0,1-1.618-7.608,5.5,5.5,0,0,1,7.608-1.618q14.426,9.366,27.524,18.505a5.5,5.5,0,0,1,1.37,7.657A5.494,5.494,0,0,1-312.892,782.13Zm-55.332-35.949a5.474,5.474,0,0,1-2.847-.8q-13.632-8.271-28.322-16.624a5.5,5.5,0,0,1-2.066-7.5,5.5,5.5,0,0,1,7.5-2.067q14.836,8.426,28.6,16.784a5.5,5.5,0,0,1,1.849,7.555A5.5,5.5,0,0,1-368.224,746.181ZM-2278.059,739.9c-10,0-20.046-.242-29.93-.722a5.5,5.5,0,0,1-5.227-5.76,5.5,5.5,0,0,1,5.76-5.227c10.787.523,21.783.759,32.675.7a5.512,5.512,0,0,1,5.53,5.47,5.5,5.5,0,0,1-5.47,5.53Q-2276.388,739.9-2278.059,739.9Zm36.292-1.056a5.5,5.5,0,0,1-5.486-5.183,5.5,5.5,0,0,1,5.173-5.808c10.771-.623,21.741-1.538,32.6-2.72a5.5,5.5,0,0,1,6.062,4.873,5.5,5.5,0,0,1-4.873,6.063c-11.047,1.2-22.2,2.132-33.159,2.766C-2241.553,738.84-2241.661,738.843-2241.768,738.843Zm-98.864-2.165a5.556,5.556,0,0,1-.576-.03c-11.015-1.146-22.122-2.616-33.012-4.37a5.5,5.5,0,0,1-4.556-6.3,5.5,5.5,0,0,1,6.3-4.556c10.688,1.721,21.589,3.164,32.4,4.289a5.5,5.5,0,0,1,4.9,6.04A5.5,5.5,0,0,1-2340.631,736.678Zm164.438-4.944a5.5,5.5,0,0,1-5.426-4.641,5.5,5.5,0,0,1,4.573-6.292c10.647-1.684,21.484-3.658,32.21-5.869a5.5,5.5,0,0,1,6.5,4.277,5.5,5.5,0,0,1-4.276,6.5c-10.892,2.245-21.9,4.25-32.712,5.961A5.537,5.537,0,0,1-2176.194,731.734Zm-229.548-5.545a5.519,5.519,0,0,1-1.185-.129c-10.8-2.371-21.674-5.084-32.326-8.064a5.5,5.5,0,0,1-3.815-6.778,5.5,5.5,0,0,1,6.778-3.815c10.453,2.924,21.126,5.586,31.722,7.913a5.5,5.5,0,0,1,4.192,6.552A5.5,5.5,0,0,1-2405.741,726.19Zm294.175-7.75a5.5,5.5,0,0,1-5.328-4.154,5.5,5.5,0,0,1,3.985-6.679c10.448-2.639,21.077-5.565,31.593-8.7a5.5,5.5,0,0,1,6.841,3.7,5.5,5.5,0,0,1-3.7,6.841c-10.663,3.174-21.441,6.141-32.037,8.818A5.513,5.513,0,0,1-2111.567,718.44Zm1685.953-4.87a5.475,5.475,0,0,1-2.58-.646q-14.144-7.528-29.183-15.046a5.5,5.5,0,0,1-2.464-7.378,5.5,5.5,0,0,1,7.378-2.464q15.174,7.577,29.438,15.177a5.5,5.5,0,0,1,2.271,7.439A5.5,5.5,0,0,1-425.614,713.57Zm-2043.672-5.151a5.493,5.493,0,0,1-1.778-.3c-10.437-3.565-20.935-7.481-31.2-11.64a5.5,5.5,0,0,1-3.032-7.163,5.5,5.5,0,0,1,7.163-3.033c10.078,4.083,20.383,7.927,30.627,11.426a5.5,5.5,0,0,1,3.427,6.982A5.5,5.5,0,0,1-2469.286,708.419Zm421.071-8.75a5.5,5.5,0,0,1-5.223-3.781,5.5,5.5,0,0,1,3.5-6.945q15.919-5.243,31.24-10.414a5.5,5.5,0,0,1,6.969,3.453,5.5,5.5,0,0,1-3.453,6.97q-15.363,5.182-31.315,10.439A5.5,5.5,0,0,1-2048.215,699.669Zm1563.591-15.58a5.478,5.478,0,0,1-2.331-.521q-14.572-6.83-29.926-13.592a5.5,5.5,0,0,1-2.819-7.249,5.5,5.5,0,0,1,7.25-2.819q15.478,6.811,30.163,13.7a5.5,5.5,0,0,1,2.646,7.314A5.5,5.5,0,0,1-484.624,684.089Zm-2045.806-.428a5.479,5.479,0,0,1-2.338-.525c-9.964-4.688-19.967-9.73-29.729-14.983a5.5,5.5,0,0,1-2.237-7.449,5.5,5.5,0,0,1,7.449-2.237c9.589,5.16,19.413,10.111,29.2,14.716a5.5,5.5,0,0,1,2.635,7.318A5.5,5.5,0,0,1-2530.43,683.661Zm544.729-5.076a5.5,5.5,0,0,1-5.2-3.708,5.5,5.5,0,0,1,3.406-6.993q15.878-5.477,31.145-10.855a5.5,5.5,0,0,1,7.014,3.362,5.5,5.5,0,0,1-3.362,7.014q-15.306,5.388-31.21,10.878A5.494,5.494,0,0,1-1985.7,678.585ZM-545.021,657.5a5.483,5.483,0,0,1-2.1-.418q-14.918-6.163-30.527-12.221a5.5,5.5,0,0,1-3.139-7.116,5.5,5.5,0,0,1,7.117-3.139q15.725,6.1,30.75,12.311a5.5,5.5,0,0,1,2.983,7.183A5.5,5.5,0,0,1-545.021,657.5Zm-1378.412-.823a5.5,5.5,0,0,1-5.178-3.647,5.5,5.5,0,0,1,3.323-7.033q15.8-5.661,31.005-11.187a5.5,5.5,0,0,1,7.047,3.292,5.5,5.5,0,0,1-3.292,7.047q-15.232,5.533-31.051,11.2A5.492,5.492,0,0,1-1923.433,656.676Zm-665.1-4.271a5.474,5.474,0,0,1-2.853-.8c-9.4-5.719-18.81-11.781-27.963-18.019a5.5,5.5,0,0,1-1.448-7.642,5.5,5.5,0,0,1,7.642-1.448c9,6.131,18.245,12.09,27.485,17.711a5.5,5.5,0,0,1,1.841,7.557A5.5,5.5,0,0,1-2588.538,652.405Zm727.122-18.239a5.5,5.5,0,0,1-5.164-3.608,5.5,5.5,0,0,1,3.27-7.057l30.965-11.383a5.5,5.5,0,0,1,7.061,3.261,5.5,5.5,0,0,1-3.261,7.062l-30.979,11.388A5.49,5.49,0,0,1-1861.416,634.166Zm1254.852-.545a5.489,5.489,0,0,1-1.88-.333q-15.2-5.532-31.029-10.935a5.5,5.5,0,0,1-3.429-6.981,5.5,5.5,0,0,1,6.981-3.429q15.933,5.436,31.238,11.008A5.5,5.5,0,0,1-601.4,630,5.5,5.5,0,0,1-606.564,633.622Zm-2036.492-18.358a5.476,5.476,0,0,1-3.32-1.118c-8.79-6.668-17.536-13.656-25.994-20.769a5.5,5.5,0,0,1-.669-7.749,5.5,5.5,0,0,1,7.749-.669c8.318,7,16.918,13.867,25.563,20.424a5.5,5.5,0,0,1,1.058,7.706A5.491,5.491,0,0,1-2643.056,615.263ZM-669,612.309a5.493,5.493,0,0,1-1.676-.263q-15.435-4.934-31.433-9.722a5.5,5.5,0,0,1-3.693-6.846,5.5,5.5,0,0,1,6.846-3.693q16.1,4.816,31.63,9.783a5.5,5.5,0,0,1,3.564,6.913A5.5,5.5,0,0,1-669,612.309Zm-1130.467-.923a5.5,5.5,0,0,1-5.163-3.606,5.5,5.5,0,0,1,3.268-7.058q15.76-5.785,31.02-11.331a5.5,5.5,0,0,1,7.046,3.294,5.5,5.5,0,0,1-3.294,7.046q-15.256,5.537-30.982,11.317A5.491,5.491,0,0,1-1799.469,611.386Zm1067.221-18a5.5,5.5,0,0,1-1.484-.2q-15.612-4.365-31.739-8.575a5.5,5.5,0,0,1-3.933-6.71,5.5,5.5,0,0,1,6.71-3.933q16.221,4.233,31.923,8.625a5.5,5.5,0,0,1,3.816,6.778A5.5,5.5,0,0,1-732.248,593.382ZM-1737.414,588.9a5.5,5.5,0,0,1-5.183-3.661,5.5,5.5,0,0,1,3.342-7.024q15.784-5.605,31.2-10.9a5.5,5.5,0,0,1,6.988,3.416,5.5,5.5,0,0,1-3.416,6.988q-15.373,5.277-31.085,10.866A5.491,5.491,0,0,1-1737.414,588.9Zm941.3-12.19a5.511,5.511,0,0,1-1.3-.157q-15.764-3.83-32-7.5a5.5,5.5,0,0,1-4.153-6.577A5.5,5.5,0,0,1-827,558.325q16.327,3.688,32.176,7.541a5.5,5.5,0,0,1,4.046,6.643A5.5,5.5,0,0,1-796.117,576.712Zm-1897.43-3.917a5.48,5.48,0,0,1-3.747-1.474c-8.158-7.6-16.156-15.436-23.771-23.3a5.5,5.5,0,0,1,.128-7.777,5.5,5.5,0,0,1,7.777.127c7.483,7.732,15.343,15.438,23.362,22.9a5.5,5.5,0,0,1,.278,7.773A5.486,5.486,0,0,1-2693.547,572.8Zm1018.555-5.273a5.5,5.5,0,0,1-5.227-3.792,5.5,5.5,0,0,1,3.518-6.937q15.874-5.191,31.559-10a5.5,5.5,0,0,1,6.869,3.649,5.5,5.5,0,0,1-3.649,6.869q-15.6,4.778-31.361,9.94A5.5,5.5,0,0,1-1674.992,567.523Zm814.514-5.352a5.521,5.521,0,0,1-1.133-.118q-15.9-3.331-32.248-6.5a5.5,5.5,0,0,1-4.354-6.445,5.5,5.5,0,0,1,6.445-4.354q16.427,3.179,32.412,6.528a5.5,5.5,0,0,1,4.256,6.51A5.5,5.5,0,0,1-860.478,562.17Zm-64.768-12.543a5.529,5.529,0,0,1-.972-.086l-8.147-1.438q-12.337-2.155-24.379-4.184a5.5,5.5,0,0,1-4.509-6.338,5.5,5.5,0,0,1,6.338-4.509q12.075,2.035,24.443,4.195l8.186,1.445a5.5,5.5,0,0,1,4.449,6.38A5.5,5.5,0,0,1-925.246,549.627Zm-686.637-1.381a5.5,5.5,0,0,1-5.292-4.013,5.5,5.5,0,0,1,3.806-6.783q15.992-4.5,32.023-8.551a5.5,5.5,0,0,1,6.679,3.987,5.5,5.5,0,0,1-3.987,6.679q-15.909,4.015-31.738,8.475A5.5,5.5,0,0,1-1611.883,548.246Zm621.448-9.606a5.537,5.537,0,0,1-.875-.07q-16.564-2.647-32.569-5.049a5.5,5.5,0,0,1-4.622-6.256,5.5,5.5,0,0,1,6.256-4.622q16.059,2.411,32.671,5.065a5.5,5.5,0,0,1,4.563,6.3A5.5,5.5,0,0,1-990.435,538.64Zm-557.462-6.51a5.5,5.5,0,0,1-5.365-4.315,5.5,5.5,0,0,1,4.185-6.557q16.113-3.558,32.5-6.635a5.5,5.5,0,0,1,6.419,4.393,5.5,5.5,0,0,1-4.393,6.419q-16.232,3.041-32.155,6.565A5.521,5.521,0,0,1-1547.9,532.13Zm492.246-3.271a5.548,5.548,0,0,1-.767-.053q-16.653-2.323-32.707-4.373a5.5,5.5,0,0,1-4.759-6.152,5.5,5.5,0,0,1,6.152-4.759q16.12,2.058,32.834,4.389a5.5,5.5,0,0,1,4.687,6.207A5.5,5.5,0,0,1-1055.651,528.859Zm-1683.733-3.511a5.486,5.486,0,0,1-4.168-1.909c-13.68-15.867-20.618-25.806-20.907-26.222a5.5,5.5,0,0,1,1.377-7.654,5.5,5.5,0,0,1,7.656,1.375c.068.1,6.942,9.934,20.206,25.318a5.5,5.5,0,0,1-.574,7.757A5.479,5.479,0,0,1-2739.383,525.348Zm1618.27-4.834a5.555,5.555,0,0,1-.633-.036q-16.714-1.916-32.79-3.524a5.5,5.5,0,0,1-4.925-6.021,5.5,5.5,0,0,1,6.021-4.925q16.16,1.618,32.947,3.541a5.5,5.5,0,0,1,4.838,6.091A5.5,5.5,0,0,1-1121.113,520.514Zm-361.935-.521a5.5,5.5,0,0,1-5.429-4.668,5.5,5.5,0,0,1,4.6-6.269q16.208-2.483,32.886-4.478a5.5,5.5,0,0,1,6.113,4.81,5.5,5.5,0,0,1-4.81,6.113q-16.511,1.969-32.523,4.428A5.548,5.548,0,0,1-1483.048,519.992Zm296.223-6.039q-.231,0-.466-.02-16.72-1.4-32.776-2.465a5.5,5.5,0,0,1-5.125-5.851,5.5,5.5,0,0,1,5.851-5.125q16.159,1.068,32.971,2.479a5.5,5.5,0,0,1,5.021,5.941A5.5,5.5,0,0,1-1186.826,513.953Zm-230.7-1.788a5.5,5.5,0,0,1-5.473-5.026,5.5,5.5,0,0,1,5.005-5.954q16.237-1.405,33.07-2.344a5.5,5.5,0,0,1,5.8,5.187,5.5,5.5,0,0,1-5.187,5.8q-16.676.926-32.732,2.32Q-1417.284,512.165-1417.522,512.165Zm164.845-2.542c-.086,0-.172,0-.258-.006q-16.774-.775-32.864-1.163a5.5,5.5,0,0,1-5.365-5.631,5.5,5.5,0,0,1,5.631-5.365q16.216.392,33.1,1.172a5.5,5.5,0,0,1,5.24,5.748A5.5,5.5,0,0,1-1252.678,509.623Zm-98.977-1.139a5.5,5.5,0,0,1-5.495-5.353,5.5,5.5,0,0,1,5.351-5.645q16.24-.432,33.137-.436a5.5,5.5,0,0,1,5.5,5.5,5.5,5.5,0,0,1-5.5,5.5q-16.76,0-32.845.432Z" transform="translate(2765.442 -488.579)" fill="#7e4897"/></svg>